HIERARCHY
ROOT Root
{
	OFFSET 0.000000 1.235290 9.556880 
	CHANNELS 6 Xposition Yposition Zposition Xrotation Yrotation Zrotation
	JOINT Spine1
	{
		OFFSET 0.000000 -0.335706 0.417760 
		CHANNELS 3 Xrotation Yrotation Zrotation
		JOINT Spine2
		{
			OFFSET 0.000000 0.201896 1.005360 
			CHANNELS 3 Xrotation Yrotation Zrotation
			JOINT Spine3
			{
				OFFSET 0.000000 0.371400 1.223500 
				CHANNELS 3 Xrotation Yrotation Zrotation
				JOINT Neck
				{
					OFFSET 0.000000 -0.271320 1.966900 
					CHANNELS 3 Xrotation Yrotation Zrotation
					JOINT Head
					{
						OFFSET 0.000000 -0.007180 1.071600 
						CHANNELS 3 Xrotation Yrotation Zrotation
						JOINT __Jaw
						{
							OFFSET 0.000000 0.111500 1.311400 
							CHANNELS 3 Xrotation Yrotation Zrotation
							JOINT Jaw
							{
								OFFSET 0.000000 -0.590716 -1.325200 
								CHANNELS 3 Xrotation Yrotation Zrotation
								JOINT __Tongue1
								{
									OFFSET 0.000000 -0.762537 -0.667300 
									CHANNELS 3 Xrotation Yrotation Zrotation
									End Site
									{
										OFFSET 0.000000 0.712770 0.336600 
									}
								}
								JOINT Tongue1
								{
									OFFSET 0.000000 -0.762537 -0.667300 
									CHANNELS 3 Xrotation Yrotation Zrotation
									JOINT Tongue2
									{
										OFFSET 0.000000 0.440548 0.404301 
										CHANNELS 3 Xrotation Yrotation Zrotation
										JOINT Tongue3
										{
											OFFSET 0.000000 -0.222683 -0.007800 
											CHANNELS 3 Xrotation Yrotation Zrotation
											End Site
											{
												OFFSET 0.000000 -0.137613 -0.039500 
											}
										}
									}
								}
							}
						}
						JOINT __Eye_L
						{
							OFFSET 0.000000 0.111500 1.311400 
							CHANNELS 3 Xrotation Yrotation Zrotation
							JOINT Eye_L
							{
								OFFSET 0.286939 -1.150516 -0.965200 
								CHANNELS 3 Xrotation Yrotation Zrotation
								End Site
								{
									OFFSET 0.007035 -0.392999 0.015301 
								}
							}
						}
						JOINT __Eye_R
						{
							OFFSET 0.000000 0.111500 1.311400 
							CHANNELS 3 Xrotation Yrotation Zrotation
							JOINT Eye_R
							{
								OFFSET -0.286939 -1.150516 -0.965200 
								CHANNELS 3 Xrotation Yrotation Zrotation
								End Site
								{
									OFFSET -0.007035 -0.392999 0.015301 
								}
							}
						}
					}
				}
				JOINT __Clavicle_L
				{
					OFFSET 0.000000 -0.271320 1.966900 
					CHANNELS 3 Xrotation Yrotation Zrotation
					JOINT Clavicle_L
					{
						OFFSET 0.252495 -0.592680 -0.680099 
						CHANNELS 3 Xrotation Yrotation Zrotation
						JOINT UpArm_L
						{
							OFFSET 1.471835 0.544940 -0.006500 
							CHANNELS 3 Xrotation Yrotation Zrotation
							JOINT LoArm_L
							{
								OFFSET 1.972350 0.157380 -0.189700 
								CHANNELS 3 Xrotation Yrotation Zrotation
								JOINT Hand_L
								{
									OFFSET 2.379560 -0.226010 -0.082600 
									CHANNELS 3 Xrotation Yrotation Zrotation
									JOINT __Thumb1_L
									{
										OFFSET 1.011520 -0.180094 0.059500 
										CHANNELS 3 Xrotation Yrotation Zrotation
										JOINT Thumb1_L
										{
											OFFSET -0.742610 -0.068096 -0.139400 
											CHANNELS 3 Xrotation Yrotation Zrotation
											JOINT Thumb2_L
											{
												OFFSET 0.294840 -0.171231 -0.196401 
												CHANNELS 3 Xrotation Yrotation Zrotation
												JOINT Thumb3_L
												{
													OFFSET 0.301650 -0.145173 -0.003699 
													CHANNELS 3 Xrotation Yrotation Zrotation
													End Site
													{
														OFFSET 0.352750 -0.040702 -0.031401 
													}
												}
											}
										}
									}
									JOINT __Index1_L
									{
										OFFSET 1.011520 -0.180094 0.059500 
										CHANNELS 3 Xrotation Yrotation Zrotation
										JOINT Index1_L
										{
											OFFSET -0.020550 -0.189660 -0.032800 
											CHANNELS 3 Xrotation Yrotation Zrotation
											JOINT Index2_L
											{
												OFFSET 0.260730 -0.033503 -0.029100 
												CHANNELS 3 Xrotation Yrotation Zrotation
												JOINT Index3_L
												{
													OFFSET 0.208380 -0.017383 -0.010500 
													CHANNELS 3 Xrotation Yrotation Zrotation
													End Site
													{
														OFFSET 0.264640 -0.009090 -0.002500 
													}
												}
											}
										}
									}
									JOINT Middle1_L
									{
										OFFSET 1.011520 -0.180094 0.059500 
										CHANNELS 3 Xrotation Yrotation Zrotation
										JOINT Middle2_L
										{
											OFFSET 0.316330 0.002049 -0.007900 
											CHANNELS 3 Xrotation Yrotation Zrotation
											JOINT Middle3_L
											{
												OFFSET 0.267600 -0.007631 -0.029200 
												CHANNELS 3 Xrotation Yrotation Zrotation
												End Site
												{
													OFFSET 0.242780 0.003143 -0.019500 
												}
											}
										}
									}
									JOINT __Ring1_L
									{
										OFFSET 1.011520 -0.180094 0.059500 
										CHANNELS 3 Xrotation Yrotation Zrotation
										JOINT Ring1_L
										{
											OFFSET -0.013760 0.218464 -0.042000 
											CHANNELS 3 Xrotation Yrotation Zrotation
											JOINT Ring2_L
											{
												OFFSET 0.289610 -0.005100 -0.009501 
												CHANNELS 3 Xrotation Yrotation Zrotation
												JOINT Ring3_L
												{
													OFFSET 0.226630 0.000370 -0.008200 
													CHANNELS 3 Xrotation Yrotation Zrotation
													End Site
													{
														OFFSET 0.238650 -0.005430 -0.004400 
													}
												}
											}
										}
									}
									JOINT __Pinky1_L
									{
										OFFSET 1.011520 -0.180094 0.059500 
										CHANNELS 3 Xrotation Yrotation Zrotation
										JOINT Pinky1_L
										{
											OFFSET -0.011150 0.413174 -0.115499 
											CHANNELS 3 Xrotation Yrotation Zrotation
											JOINT Pinky2_L
											{
												OFFSET 0.234040 0.008980 -0.037001 
												CHANNELS 3 Xrotation Yrotation Zrotation
												JOINT Pinky3_L
												{
													OFFSET 0.128020 -0.000440 -0.009500 
													CHANNELS 3 Xrotation Yrotation Zrotation
													End Site
													{
														OFFSET 0.152970 -0.016250 0.002399 
													}
												}
											}
										}
									}
								}
							}
						}
					}
				}
				JOINT __Clavicle_R
				{
					OFFSET 0.000000 -0.271320 1.966900 
					CHANNELS 3 Xrotation Yrotation Zrotation
					JOINT Clavicle_R
					{
						OFFSET -0.252495 -0.592680 -0.680099 
						CHANNELS 3 Xrotation Yrotation Zrotation
						JOINT UpArm_R
						{
							OFFSET -1.471835 0.544940 -0.006500 
							CHANNELS 3 Xrotation Yrotation Zrotation
							JOINT LoArm_R
							{
								OFFSET -1.972350 0.157380 -0.189700 
								CHANNELS 3 Xrotation Yrotation Zrotation
								JOINT Hand_R
								{
									OFFSET -2.379560 -0.226010 -0.082600 
									CHANNELS 3 Xrotation Yrotation Zrotation
									JOINT __Thumb1_R
									{
										OFFSET -1.011520 -0.180094 0.059500 
										CHANNELS 3 Xrotation Yrotation Zrotation
										JOINT Thumb1_R
										{
											OFFSET 0.742610 -0.068096 -0.139400 
											CHANNELS 3 Xrotation Yrotation Zrotation
											JOINT Thumb2_R
											{
												OFFSET -0.294840 -0.171231 -0.196401 
												CHANNELS 3 Xrotation Yrotation Zrotation
												JOINT Thumb3_R
												{
													OFFSET -0.301650 -0.145173 -0.003699 
													CHANNELS 3 Xrotation Yrotation Zrotation
													End Site
													{
														OFFSET -0.352750 -0.040702 -0.031401 
													}
												}
											}
										}
									}
									JOINT __Index1_R
									{
										OFFSET -1.011520 -0.180094 0.059500 
										CHANNELS 3 Xrotation Yrotation Zrotation
										JOINT Index1_R
										{
											OFFSET 0.020550 -0.189660 -0.032800 
											CHANNELS 3 Xrotation Yrotation Zrotation
											JOINT Index2_R
											{
												OFFSET -0.260730 -0.033503 -0.029100 
												CHANNELS 3 Xrotation Yrotation Zrotation
												JOINT Index3_R
												{
													OFFSET -0.208380 -0.017383 -0.010500 
													CHANNELS 3 Xrotation Yrotation Zrotation
													End Site
													{
														OFFSET -0.264640 -0.009090 -0.002500 
													}
												}
											}
										}
									}
									JOINT Middle1_R
									{
										OFFSET -1.011520 -0.180094 0.059500 
										CHANNELS 3 Xrotation Yrotation Zrotation
										JOINT Middle2_R
										{
											OFFSET -0.316330 0.002049 -0.007900 
											CHANNELS 3 Xrotation Yrotation Zrotation
											JOINT Middle3_R
											{
												OFFSET -0.267600 -0.007631 -0.029200 
												CHANNELS 3 Xrotation Yrotation Zrotation
												End Site
												{
													OFFSET -0.242780 0.003143 -0.019500 
												}
											}
										}
									}
									JOINT __Ring1_R
									{
										OFFSET -1.011520 -0.180094 0.059500 
										CHANNELS 3 Xrotation Yrotation Zrotation
										JOINT Ring1_R
										{
											OFFSET 0.013760 0.218464 -0.042000 
											CHANNELS 3 Xrotation Yrotation Zrotation
											JOINT Ring2_R
											{
												OFFSET -0.289610 -0.005100 -0.009501 
												CHANNELS 3 Xrotation Yrotation Zrotation
												JOINT Ring3_R
												{
													OFFSET -0.226630 0.000370 -0.008200 
													CHANNELS 3 Xrotation Yrotation Zrotation
													End Site
													{
														OFFSET -0.238650 -0.005430 -0.004400 
													}
												}
											}
										}
									}
									JOINT __Pinky1_R
									{
										OFFSET -1.011520 -0.180094 0.059500 
										CHANNELS 3 Xrotation Yrotation Zrotation
										JOINT Pinky1_R
										{
											OFFSET 0.011150 0.413174 -0.115499 
											CHANNELS 3 Xrotation Yrotation Zrotation
											JOINT Pinky2_R
											{
												OFFSET -0.234040 0.008980 -0.037001 
												CHANNELS 3 Xrotation Yrotation Zrotation
												JOINT Pinky3_R
												{
													OFFSET -0.128020 -0.000440 -0.009500 
													CHANNELS 3 Xrotation Yrotation Zrotation
													End Site
													{
														OFFSET -0.152970 -0.016250 0.002399 
													}
												}
											}
										}
									}
								}
							}
						}
					}
				}
			}
		}
	}
	JOINT Hips
	{
		OFFSET 0.000000 -0.335706 0.417760 
		CHANNELS 3 Xrotation Yrotation Zrotation
		JOINT __UpLeg_L
		{
			OFFSET 0.000000 0.022872 -0.785740 
			CHANNELS 3 Xrotation Yrotation Zrotation
			JOINT UpLeg_L
			{
				OFFSET 1.020500 -0.049429 -0.185710 
				CHANNELS 3 Xrotation Yrotation Zrotation
				JOINT LoLeg_L
				{
					OFFSET -0.115340 0.263813 -4.255400 
					CHANNELS 3 Xrotation Yrotation Zrotation
					JOINT Foot_L
					{
						OFFSET -0.219506 0.080640 -3.913219 
						CHANNELS 3 Xrotation Yrotation Zrotation
						JOINT Toe_L
						{
							OFFSET 0.022090 -1.132070 -0.644009 
							CHANNELS 3 Xrotation Yrotation Zrotation
							End Site
							{
								OFFSET 0.031489 -0.669111 0.010260 
							}
						}
					}
				}
			}
		}
		JOINT __UpLeg_R
		{
			OFFSET 0.000000 0.022872 -0.785740 
			CHANNELS 3 Xrotation Yrotation Zrotation
			JOINT UpLeg_R
			{
				OFFSET -1.020500 -0.049429 -0.185710 
				CHANNELS 3 Xrotation Yrotation Zrotation
				JOINT LoLeg_R
				{
					OFFSET 0.115340 0.263813 -4.255400 
					CHANNELS 3 Xrotation Yrotation Zrotation
					JOINT Foot_R
					{
						OFFSET 0.219506 0.080640 -3.913219 
						CHANNELS 3 Xrotation Yrotation Zrotation
						JOINT Toe_R
						{
							OFFSET -0.022090 -1.132070 -0.644009 
							CHANNELS 3 Xrotation Yrotation Zrotation
							End Site
							{
								OFFSET -0.031489 -0.669111 0.010260 
							}
						}
					}
				}
			}
		}
	}
}
MOTION
Frames: 4
Frame Time: 0.041667
0.000000 0.000000 0.000000 -3.255159 -3.375339 -0.883351 -0.641683 1.249584 -0.361565 16.708881 0.866403 -2.161580 7.532807 -0.140796 -0.580575 -22.199421 3.514788 1.674576 2.815112 1.162861 1.771467 0.000000 0.000000 0.000000 -0.000001 0.000000 0.000000 0.000000 0.000000 0.000000 0.000000 0.000000 0.000000 -0.000004 0.000000 0.000000 -0.000000 0.000000 0.000000 -0.000003 0.000000 -0.000001 0.000002 0.000006 -0.000001 -0.000002 0.000000 0.000001 -0.000000 -0.000007 0.000000 -0.000002 -0.000001 -0.000001 -5.554985 0.590292 3.464541 65.163971 56.952766 -67.264030 -14.912230 -22.451305 -37.639961 -35.751316 9.434506 -17.410706 -0.000001 -0.000001 -0.000004 0.000002 0.000005 0.000001 0.000004 0.000001 0.000000 -0.000001 0.000000 0.000002 0.000001 0.000001 -0.000002 0.000000 0.000001 0.000001 0.000001 0.000000 0.000000 0.000000 -0.000000 0.000000 -0.000001 -0.000001 -0.000004 0.000000 0.000001 -0.000000 0.000000 0.000000 -0.000000 0.000000 -0.000001 -0.000003 -0.000000 -0.000000 -0.000001 -0.000000 0.000000 0.000000 0.000000 -0.000000 0.000000 0.000000 -0.000001 -0.000003 0.000000 0.000000 0.000000 0.000000 0.000001 0.000000 -0.000000 0.000000 -0.000000 -0.000002 0.000002 0.000000 -5.348533 -0.208016 -5.417315 71.585487 -58.184132 66.683426 -7.109407 12.255287 14.568203 -16.025232 -8.063710 18.829826 -0.000000 -0.000000 0.000001 0.000003 -0.000002 0.000000 0.000002 -0.000001 -0.000000 0.000000 0.000000 -0.000003 0.000001 -0.000002 0.000002 0.000001 -0.000000 -0.000002 0.000000 0.000000 -0.000000 0.000000 0.000000 -0.000001 0.000000 0.000000 0.000000 0.000000 0.000000 -0.000002 0.000000 0.000000 -0.000001 -0.000000 0.000000 0.000001 0.000001 0.000000 -0.000000 0.000000 0.000000 0.000001 0.000000 0.000001 0.000000 -0.000000 0.000000 0.000001 0.000001 0.000000 0.000000 0.000001 -0.000001 -0.000001 -0.000001 -0.000001 -0.000000 -0.000002 0.000000 0.000000 0.000001 0.000001 0.000000 -3.535858 8.669844 -3.742434 31.961813 -1.175485 -2.683161 -21.261282 19.186985 11.858123 0.000002 0.000004 -0.000001 0.000001 0.000000 0.000000 -30.591297 1.160192 8.903459 57.758568 1.358549 3.670612 -14.123316 -19.539110 -18.591759 -0.000004 0.000005 0.000000 
0.000000 0.000000 0.000000 -2.046414 -5.144296 6.002036 -1.360737 3.269485 -2.207297 16.932547 0.202239 -4.536298 8.299579 -1.869104 -1.503776 -23.374327 4.054712 1.694940 2.634651 0.257045 1.532208 0.000001 -0.000000 0.000000 -0.000000 0.000000 -0.000000 -0.000000 0.000000 0.000000 -0.000002 0.000000 0.000000 0.000002 0.000000 -0.000000 -0.000001 -0.000000 0.000000 0.000000 -0.000001 0.000000 0.000004 0.000004 0.000001 0.000000 0.000000 0.000000 0.000003 -0.000001 -0.000000 0.000000 -0.000001 -0.000001 -5.554982 0.590292 3.464540 60.580856 47.212448 -67.407265 -24.288498 -28.319431 -58.583408 -37.900635 9.552492 -17.229343 -0.000001 0.000000 -0.000001 0.000003 0.000004 -0.000001 0.000006 0.000003 0.000001 -0.000001 -0.000001 0.000002 0.000000 0.000001 -0.000001 0.000001 -0.000001 0.000000 0.000000 -0.000000 0.000000 0.000000 0.000000 0.000000 -0.000000 -0.000000 -0.000001 -0.000001 0.000000 0.000000 0.000001 -0.000000 -0.000001 -0.000001 0.000000 -0.000000 -0.000000 -0.000000 0.000000 0.000000 0.000000 -0.000000 -0.000001 0.000000 -0.000000 0.000002 -0.000000 -0.000001 -0.000001 0.000000 0.000000 -0.000001 0.000000 -0.000000 -0.000001 -0.000001 -0.000002 -0.000003 0.000001 0.000001 -5.348529 -0.208018 -5.417321 80.238159 -66.724365 66.014656 -4.790952 7.028988 5.704906 -9.987652 -7.563319 19.172644 -0.000001 -0.000001 0.000001 -0.000000 -0.000002 -0.000001 0.000006 -0.000000 0.000001 -0.000000 0.000000 -0.000000 -0.000000 -0.000001 0.000001 -0.000001 -0.000001 -0.000001 0.000000 0.000000 0.000001 0.000000 -0.000000 0.000000 -0.000000 -0.000000 0.000000 -0.000000 -0.000000 -0.000000 0.000001 0.000000 -0.000000 0.000000 -0.000000 0.000001 -0.000000 -0.000000 0.000000 -0.000000 -0.000000 0.000000 0.000000 0.000000 -0.000000 -0.000000 0.000000 0.000000 -0.000001 -0.000001 -0.000000 0.000001 0.000001 -0.000000 0.000000 -0.000000 0.000000 -0.000002 0.000000 -0.000000 0.000000 -0.000000 0.000000 12.467931 7.356606 -7.724620 16.885605 -1.379723 -2.174769 -13.824446 21.988653 5.655092 -0.000002 0.000001 -0.000000 0.000001 -0.000000 0.000000 -35.122990 4.621781 12.057826 32.174431 1.314437 2.775240 -23.410467 -15.909613 -19.563011 -0.000004 0.000004 -0.000000 
0.000000 0.000000 0.000000 -1.741360 -3.803651 7.885850 -2.469219 2.784024 -2.932606 16.400124 -1.044210 -5.261594 8.430578 -2.845604 -1.819922 -23.308771 4.278447 2.239118 3.366142 0.784391 2.108081 0.000000 -0.000000 -0.000000 0.000003 -0.000000 -0.000000 -0.000003 0.000000 0.000000 -0.000003 0.000000 0.000000 -0.000001 -0.000000 -0.000000 -0.000001 0.000000 -0.000000 -0.000001 -0.000001 -0.000001 0.000005 0.000001 -0.000001 -0.000001 -0.000001 -0.000001 -0.000001 -0.000003 0.000004 -0.000001 -0.000002 -0.000000 -5.554983 0.590292 3.464542 60.594322 46.021378 -67.172295 -28.001965 -29.602942 -67.494041 -35.836582 9.440233 -17.404226 -0.000002 -0.000000 -0.000001 0.000001 0.000004 -0.000001 -0.000001 0.000002 -0.000001 -0.000000 -0.000001 -0.000000 -0.000002 0.000001 -0.000001 -0.000001 0.000001 0.000001 -0.000000 -0.000001 -0.000001 -0.000001 0.000000 0.000000 -0.000002 -0.000000 -0.000001 0.000001 0.000001 0.000000 -0.000000 -0.000002 -0.000000 -0.000001 0.000001 -0.000001 0.000000 0.000000 -0.000000 0.000001 0.000001 0.000000 -0.000000 0.000000 0.000000 -0.000000 0.000000 -0.000001 -0.000001 -0.000000 -0.000000 0.000001 -0.000001 0.000001 -0.000001 0.000000 0.000000 -0.000002 0.000001 -0.000001 -5.348532 -0.208015 -5.417320 76.468094 -72.442467 56.975674 -3.594335 3.542042 0.560800 -3.504428 -6.981943 19.468979 -0.000000 -0.000000 0.000002 -0.000000 -0.000003 -0.000002 0.000006 -0.000002 0.000002 0.000000 0.000000 0.000000 -0.000000 -0.000001 0.000001 -0.000000 -0.000002 -0.000001 0.000001 0.000000 -0.000001 0.000000 0.000000 -0.000000 -0.000000 0.000001 0.000001 0.000000 -0.000000 0.000000 0.000001 -0.000000 0.000000 0.000001 0.000001 0.000002 0.000000 0.000000 0.000000 -0.000000 -0.000000 -0.000001 0.000000 -0.000000 -0.000000 -0.000000 0.000000 0.000001 -0.000001 0.000000 -0.000001 -0.000001 -0.000001 -0.000001 -0.000001 -0.000000 0.000000 -0.000003 0.000000 -0.000001 0.000001 0.000000 0.000001 18.404259 3.748466 -9.168189 19.049768 -1.257557 -2.223744 -9.863185 22.715700 3.181370 0.000001 0.000003 -0.000002 0.000000 -0.000000 0.000001 -35.436180 2.802590 10.524790 29.421959 1.109930 2.579308 -23.870441 -16.185440 -18.161436 0.000001 0.000006 -0.000000 
0.000000 0.000000 -0.000001 -2.189316 -1.623368 5.688953 -4.400984 1.126057 -2.889794 15.557607 -1.921573 -5.012967 8.566525 -2.765030 -1.799601 -23.445673 2.037001 2.637839 6.168322 4.256427 3.416731 0.000002 -0.000000 0.000000 0.000000 -0.000000 -0.000000 0.000001 0.000000 0.000000 -0.000000 0.000000 0.000000 0.000002 0.000000 0.000000 -0.000001 -0.000000 -0.000000 0.000002 0.000000 -0.000001 0.000003 -0.000001 -0.000001 -0.000001 0.000001 0.000002 0.000005 -0.000001 0.000002 -0.000001 -0.000001 0.000002 -5.554981 0.590292 3.464543 67.160828 48.777191 -66.918541 -28.831642 -29.771227 -69.078918 -34.725655 9.377242 -17.496634 -0.000001 -0.000001 -0.000002 0.000001 0.000004 -0.000000 0.000004 0.000004 -0.000002 -0.000001 -0.000000 0.000001 -0.000000 -0.000001 -0.000002 0.000001 -0.000000 0.000000 -0.000001 -0.000001 -0.000001 0.000001 0.000000 -0.000000 -0.000001 -0.000001 -0.000001 0.000000 0.000002 -0.000000 0.000000 0.000000 -0.000001 -0.000001 -0.000001 -0.000001 -0.000000 0.000000 -0.000000 0.000001 0.000001 -0.000000 -0.000001 -0.000001 -0.000000 -0.000000 -0.000000 -0.000002 -0.000002 -0.000002 0.000000 0.000000 -0.000000 0.000001 -0.000000 -0.000000 0.000000 -0.000005 0.000002 0.000000 -5.348531 -0.208017 -5.417318 33.749283 -79.098511 14.347673 -3.300808 1.248860 -3.119567 5.923392 -6.086097 19.784554 -0.000001 0.000001 0.000004 -0.000001 -0.000004 0.000001 0.000002 -0.000003 0.000002 -0.000000 0.000001 -0.000002 -0.000000 -0.000001 0.000003 0.000000 0.000001 -0.000002 0.000001 -0.000000 0.000003 -0.000000 -0.000000 -0.000001 -0.000000 0.000000 0.000003 0.000000 -0.000001 0.000002 0.000000 -0.000001 -0.000000 -0.000001 0.000000 0.000003 -0.000000 -0.000000 -0.000001 -0.000000 0.000000 0.000001 -0.000000 -0.000000 0.000001 -0.000000 0.000000 0.000003 -0.000002 -0.000001 -0.000001 -0.000000 0.000000 -0.000000 -0.000000 0.000000 0.000002 -0.000007 0.000000 -0.000000 0.000000 0.000000 0.000000 18.749949 0.537164 -5.193457 30.829004 -1.094935 -2.629453 4.696818 23.354937 2.180139 -0.000001 0.000001 -0.000001 0.000001 -0.000001 0.000000 -35.539696 -2.774190 9.057517 41.554565 1.021799 3.020572 -15.620381 -18.941355 -18.527716 -0.000003 0.000006 -0.000001 
